<svg id="Capa_1" enable-background="new 0 0 512 512" height="512" viewBox="0 0 512 512" width="512" xmlns="http://www.w3.org/2000/svg"><g><path d="m32.107 480.008 447.786-63.985v88.767c0 3.982-3.227 7.21-7.208 7.21h-433.37c-3.981 0-7.208-3.228-7.208-7.21z" fill="#9ca1af"/><path d="m415.924 469.708-31.985 10.3h-351.832v-404.385l168.708 20.599h110.37l158.411-20.599v340.4z" fill="#f2f6fc"/><path d="m447.908 96.222v291.993c0 3.982-3.227 7.21-7.208 7.21h-38.163c-3.981 0-7.208 3.228-7.208 7.21v62.994c0 1.912-.759 3.746-2.111 5.098l-9.279 9.282h31.985l21.688-42.292 42.282-21.693v-319.802l-15.551-10.299z" fill="#cdd2e1"/><path d="m415.924 480.008v-56.775c0-3.982 3.227-7.21 7.208-7.21h56.762z" fill="#f2f6fc"/><g fill="#19cffc"><path d="m104.86 383.969h-33.56c-3.981 0-7.209-3.227-7.209-7.209v-33.57c0-3.981 3.227-7.209 7.209-7.209h33.56c3.981 0 7.209 3.227 7.209 7.209v33.571c0 3.981-3.228 7.208-7.209 7.208z"/><path d="m104.86 304.115h-33.56c-3.981 0-7.209-3.227-7.209-7.209v-33.571c0-3.981 3.227-7.209 7.209-7.209h33.56c3.981 0 7.209 3.227 7.209 7.209v33.571c0 3.981-3.228 7.209-7.209 7.209z"/><path d="m104.86 224.26h-33.56c-3.981 0-7.209-3.227-7.209-7.209v-33.571c0-3.981 3.227-7.209 7.209-7.209h33.56c3.981 0 7.209 3.227 7.209 7.209v33.571c0 3.982-3.228 7.209-7.209 7.209z"/><path d="m440.7 383.969h-33.56c-3.981 0-7.209-3.227-7.209-7.209v-33.57c0-3.981 3.227-7.209 7.209-7.209h33.56c3.981 0 7.209 3.227 7.209 7.209v33.571c-.001 3.981-3.228 7.208-7.209 7.208z"/><path d="m440.7 304.115h-33.56c-3.981 0-7.209-3.227-7.209-7.209v-33.571c0-3.981 3.227-7.209 7.209-7.209h33.56c3.981 0 7.209 3.227 7.209 7.209v33.571c-.001 3.981-3.228 7.209-7.209 7.209z"/><path d="m440.7 224.26h-33.56c-3.981 0-7.209-3.227-7.209-7.209v-33.571c0-3.981 3.227-7.209 7.209-7.209h33.56c3.981 0 7.209 3.227 7.209 7.209v33.571c-.001 3.982-3.228 7.209-7.209 7.209z"/></g><g><g><path d="m495.885 96.222h-184.7c-12.881 0-23.323-10.444-23.323-23.328v-8.109c0-17.341-13.568-32.019-30.897-32.534-18.007-.535-32.827 13.962-32.827 31.856v8.787c0 12.884-10.442 23.328-23.323 23.328h-184.245c-8.677 0-16.143-6.67-16.551-15.339-.436-9.256 6.938-16.898 16.096-16.898h169.013c3.71 0 6.741-2.844 7.123-6.535 3.34-32.232 30.656-57.45 63.749-57.45s60.409 25.218 63.749 57.45c.382 3.691 3.414 6.535 7.123 6.535h168.558c8.677 0 16.143 6.67 16.551 15.339.437 9.256-6.938 16.898-16.096 16.898z" fill="#3e595c"/></g></g><path d="m80.084 128.092c-8.832 0-15.992-7.16-15.992-15.992v-63.993c0-8.832 7.16-15.992 15.992-15.992 8.832 0 15.992 7.16 15.992 15.992v63.992c0 8.833-7.16 15.993-15.992 15.993z" fill="#537982"/><path d="m144.053 128.092c-8.832 0-15.992-7.16-15.992-15.992v-63.993c0-8.832 7.16-15.992 15.992-15.992 8.832 0 15.992 7.16 15.992 15.992v63.992c.001 8.833-7.159 15.993-15.992 15.993z" fill="#537982"/><path d="m367.947 128.092c-8.832 0-15.992-7.16-15.992-15.992v-63.993c0-8.832 7.16-15.992 15.992-15.992 8.832 0 15.992 7.16 15.992 15.992v63.992c0 8.833-7.16 15.993-15.992 15.993z" fill="#537982"/><path d="m431.916 128.092c-8.832 0-15.992-7.16-15.992-15.992v-63.993c0-8.832 7.16-15.992 15.992-15.992 8.832 0 15.992 7.16 15.992 15.992v63.992c0 8.833-7.16 15.993-15.992 15.993z" fill="#537982"/><g><g><path d="m335.962 407.816h-159.924c-4.265 0-7.723-3.458-7.723-7.725s3.458-7.725 7.723-7.725h159.924c4.265 0 7.723 3.458 7.723 7.725s-3.458 7.725-7.723 7.725z" fill="#19cffc"/></g></g><g><g><path d="m304.525 439.682h-96.501c-4.265 0-7.723-3.458-7.723-7.725 0-4.266 3.458-7.725 7.723-7.725h96.501c4.265 0 7.723 3.458 7.723 7.725-.001 4.267-3.458 7.725-7.723 7.725z" fill="#19cffc"/></g></g><path d="m290.992 292.314-80.282 10.299v42.956c0 3.452 2.798 6.25 6.249 6.25h47.191l20.594-.399c3.451 0 6.249-2.399 6.249-5.851v-53.255z" fill="#ffee6e"/><path d="m270.398 302.613v42.956c0 3.452-2.798 6.25-6.249 6.25h30.891c3.451 0 6.249-2.798 6.249-6.25v-42.956l-15.392-10.299z" fill="#ffda45"/><path d="m316.876 244.316v16.324c0 17.767-10.019 32.969-25.887 40.94l-20.591 1.03h-59.685c-8.155-6.118-14.622-13.976-19.06-22.854-4.428-8.878-6.827-18.766-6.827-28.962v-51.889c0-21.382 17.34-38.726 38.717-38.726h21.08l20.592.294c21.387 0 38.717 17.051 38.717 38.432v25.996c7.538 2.658 12.944 10.96 12.944 19.415z" fill="#fd4754"/><path d="m316.876 244.317c0-6.571-2.266-19.27-2.605-23.122-.01-.051-.01-.093-.01-.144-.01-.123-.021-.237-.021-.34-.01-.082-.01-.175-.01-.268v-21.536c0-21.381-17.33-38.726-38.717-38.726h-30.891c21.387 0 38.717 17.345 38.717 38.726v21.536c0 2.513 1.328 4.8 3.449 6.149 5.684 3.635 9.494 10.618 9.494 17.725v5.211h-10.225c-4.263 0-7.723 3.461-7.723 7.725 0 4.275 3.46 7.725 7.723 7.725h10.019c-1.472 16.037-11.11 30.311-25.681 37.634h30.891c7.929-3.986 14.405-10.042 18.895-17.313 4.489-7.271 6.992-15.779 6.992-24.657v-11.484z" fill="#e50058"/><path d="m327.173 244.316v4.841c-4.284 9.331-13.716 15.82-24.641 15.82h-6.456c.134-1.432.206-2.884.206-4.336v-11.113h6.25c6.446 0 11.687-5.242 11.687-11.69l.01-17.396c0 .093 0 .185.01.268 0 .113.01.227.021.34 0 .052 0 .093.01.144.237 2.214 1.503 4.182 3.408 5.397 5.685 3.636 9.495 10.619 9.495 17.725z" fill="#c4186a"/></g></svg>