<?xml version="1.0" encoding="UTF-8" standalone="no"?>
<!-- Created with Inkscape (http://www.inkscape.org/) -->

<svg
   version="1.1"
   id="svg10410"
   xml:space="preserve"
   width="682.66669"
   height="682.66669"
   viewBox="0 0 682.66669 682.66669"
   xmlns="http://www.w3.org/2000/svg"
   xmlns:svg="http://www.w3.org/2000/svg"><defs
     id="defs10414"><clipPath
       clipPathUnits="userSpaceOnUse"
       id="clipPath10424"><path
         d="M 0,512 H 512 V 0 H 0 Z"
         id="path10422" /></clipPath></defs><g
     id="g10416"
     transform="matrix(1.3333333,0,0,-1.3333333,0,682.66667)"><g
       id="g10418"><g
         id="g10420"
         clip-path="url(#clipPath10424)"><g
           id="g10426"
           transform="translate(485.3259,64.3522)"><path
             d="m 0,0 h -458.652 c -10.589,0 -19.174,8.584 -19.174,19.174 v 248.024 h 497 V 19.174 C 19.174,8.584 10.59,0 0,0"
             style="fill:#faf7f7;fill-opacity:1;fill-rule:nonzero;stroke:none"
             id="path10428" /></g><g
           id="g10430"
           transform="translate(485.3259,447.6481)"><path
             d="m 0,0 h -458.652 c -10.589,0 -19.174,-8.585 -19.174,-19.174 v -96.924 h 497 v 96.924 C 19.174,-8.585 10.59,0 0,0"
             style="fill:#99e6fc;fill-opacity:1;fill-rule:nonzero;stroke:none"
             id="path10432" /></g><g
           id="g10434"
           transform="translate(474.4997,331.5504)"><path
             d="m 0,0 v -218.024 c 0,-10.59 -8.584,-19.174 -19.174,-19.174 H -467 v -10.826 c 0,-10.59 8.585,-19.174 19.174,-19.174 H 10.826 c 10.59,0 19.174,8.584 19.174,19.174 L 30,0 Z"
             style="fill:#f3eae6;fill-opacity:1;fill-rule:nonzero;stroke:none"
             id="path10436" /></g><g
           id="g10438"
           transform="translate(485.3259,447.6481)"><path
             d="m 0,0 h -30 c 10.59,0 19.174,-8.585 19.174,-19.174 v -96.924 h 30 v 96.924 C 19.174,-8.585 10.59,0 0,0"
             style="fill:#62dbfb;fill-opacity:1;fill-rule:nonzero;stroke:none"
             id="path10440" /></g><g
           id="g10442"
           transform="translate(244.0632,318.1061)"><path
             d="m 0,0 c 0,-50.947 -41.302,-92.248 -92.249,-92.248 -50.947,0 -92.248,41.301 -92.248,92.248 0,50.948 41.301,92.249 92.248,92.249 C -41.302,92.249 0,50.948 0,0"
             style="fill:#c9f6b0;fill-opacity:1;fill-rule:nonzero;stroke:none"
             id="path10444" /></g><g
           id="g10446"
           transform="translate(147.155,274.6364)"><path
             d="m 0,0 -41.374,41.374 c -3.783,3.783 -3.783,9.918 0,13.701 l 17.817,17.817 c 3.784,3.783 9.917,3.783 13.701,0 l 12.9,-12.901 c 3.783,-3.783 9.917,-3.783 13.7,0 l 63.796,63.797 c 3.784,3.783 9.918,3.783 13.701,0 l 17.818,-17.818 c 3.783,-3.783 3.783,-9.918 0,-13.701 L 19.788,0 C 14.324,-5.465 5.464,-5.465 0,0"
             style="fill:#3ec3a4;fill-opacity:1;fill-rule:nonzero;stroke:none"
             id="path10448" /></g><g
           id="g10450"
           transform="translate(336.0114,389.5992)"><path
             d="m 0,0 c 0,-8.595 -6.967,-15.563 -15.562,-15.563 -8.594,0 -15.562,6.968 -15.562,15.563 0,8.595 6.968,15.563 15.562,15.563 C -6.967,15.563 0,8.595 0,0"
             style="fill:#faf7f7;fill-opacity:1;fill-rule:nonzero;stroke:none"
             id="path10452" /></g><g
           id="g10454"
           transform="translate(395.5974,389.5992)"><path
             d="m 0,0 c 0,-8.595 -6.967,-15.563 -15.562,-15.563 -8.594,0 -15.562,6.968 -15.562,15.563 0,8.595 6.968,15.563 15.562,15.563 C -6.967,15.563 0,8.595 0,0"
             style="fill:#faf7f7;fill-opacity:1;fill-rule:nonzero;stroke:none"
             id="path10456" /></g><g
           id="g10458"
           transform="translate(453.8942,389.5992)"><path
             d="m 0,0 c 0,-8.595 -6.967,-15.563 -15.562,-15.563 -8.594,0 -15.562,6.968 -15.562,15.563 0,8.595 6.968,15.563 15.562,15.563 C -6.967,15.563 0,8.595 0,0"
             style="fill:#faf7f7;fill-opacity:1;fill-rule:nonzero;stroke:none"
             id="path10460" /></g><g
           id="g10462"
           transform="translate(248.6608,125.3551)"><path
             d="m 0,0 20.923,54.938 c 0.428,1.044 1.907,1.046 2.337,10e-4 L 43.993,0"
             style="fill:none;stroke:#000000;stroke-width:15;stroke-linecap:round;stroke-linejoin:round;stroke-miterlimit:10;stroke-dasharray:none;stroke-opacity:1"
             id="path10464" /></g><g
           id="g10466"
           transform="translate(255.1862,139.0377)"><path
             d="M 0,0 H 31.048"
             style="fill:none;stroke:#000000;stroke-width:15;stroke-linecap:round;stroke-linejoin:round;stroke-miterlimit:10;stroke-dasharray:none;stroke-opacity:1"
             id="path10468" /></g><g
           id="g10470"
           transform="translate(462.9479,153.2164)"><path
             d="m 0,0 c 0,-14.899 -8.269,-26.689 -21.388,-26.918 -4.367,-0.076 -15.654,-0.119 -15.654,-0.119 0,0 -0.07,19.586 -0.07,27.097 0,6.168 -0.039,26.977 -0.039,26.977 h 15.315 C -7.446,27.037 0,14.898 0,0 Z"
             style="fill:none;stroke:#000000;stroke-width:15;stroke-linecap:round;stroke-linejoin:round;stroke-miterlimit:10;stroke-dasharray:none;stroke-opacity:1"
             id="path10472" /></g><g
           id="g10474"
           transform="translate(221.2605,153.2164)"><path
             d="m 0,0 c 0,-14.899 -8.27,-26.689 -21.389,-26.918 -4.367,-0.076 -15.653,-0.119 -15.653,-0.119 0,0 -0.07,19.586 -0.07,27.097 0,6.168 -0.039,26.977 -0.039,26.977 h 15.314 C -7.447,27.037 0,14.898 0,0 Z"
             style="fill:none;stroke:#000000;stroke-width:15;stroke-linecap:round;stroke-linejoin:round;stroke-miterlimit:10;stroke-dasharray:none;stroke-opacity:1"
             id="path10476" /></g><g
           id="g10478"
           transform="translate(49.0515,181.0768)"><path
             d="m 0,0 v -38.343 c 0,-6.529 3.239,-10.926 8.742,-14.441 2.68,-1.712 6.065,-2.932 10.271,-2.938 3.642,-0.005 6.687,0.838 9.205,2.107 6.412,3.229 10.501,8.133 10.501,15.312 V 0"
             style="fill:none;stroke:#000000;stroke-width:15;stroke-linecap:round;stroke-linejoin:round;stroke-miterlimit:10;stroke-dasharray:none;stroke-opacity:1"
             id="path10480" /></g><g
           id="g10482"
           transform="translate(310.7018,181.0768)"><path
             d="M 0,0 H 30.772"
             style="fill:none;stroke:#000000;stroke-width:15;stroke-linecap:round;stroke-linejoin:round;stroke-miterlimit:10;stroke-dasharray:none;stroke-opacity:1"
             id="path10484" /></g><g
           id="g10486"
           transform="translate(326.0261,179.2975)"><path
             d="M 0,0 V -53.942"
             style="fill:none;stroke:#000000;stroke-width:15;stroke-linecap:round;stroke-linejoin:round;stroke-miterlimit:10;stroke-dasharray:none;stroke-opacity:1"
             id="path10488" /></g><g
           id="g10490"
           transform="translate(120.7966,181.0768)"><path
             d="M 0,0 V -55.722"
             style="fill:none;stroke:#000000;stroke-width:15;stroke-linecap:round;stroke-linejoin:round;stroke-miterlimit:10;stroke-dasharray:none;stroke-opacity:1"
             id="path10492" /></g><g
           id="g10494"
           transform="translate(152.3444,165.3522)"><path
             d="m 0,0 c 0,-8.685 -7.348,-15.725 -16.032,-15.725 -4.308,0 -15.407,-0.069 -15.407,-0.069 0,0 -0.071,11.417 -0.071,15.794 0,3.596 -0.038,15.725 -0.038,15.725 h 15.516 C -7.348,15.725 0,8.685 0,0 Z"
             style="fill:none;stroke:#000000;stroke-width:15;stroke-linecap:round;stroke-linejoin:round;stroke-miterlimit:10;stroke-dasharray:none;stroke-opacity:1"
             id="path10496" /></g><g
           id="g10498"
           transform="translate(395.5339,180.8229)"><path
             d="M 0,0 H -23.265 V -55.214 H 0"
             style="fill:none;stroke:#000000;stroke-width:15;stroke-linecap:round;stroke-linejoin:round;stroke-miterlimit:10;stroke-dasharray:none;stroke-opacity:1"
             id="path10500" /></g><g
           id="g10502"
           transform="translate(393.8181,153.2164)"><path
             d="M 0,0 H -21.549"
             style="fill:none;stroke:#000000;stroke-width:15;stroke-linecap:round;stroke-linejoin:round;stroke-miterlimit:10;stroke-dasharray:none;stroke-opacity:1"
             id="path10504" /></g><g
           id="g10506"
           transform="translate(290.4499,64.3522)"><path
             d="m 0,0 h -263.776 c -10.589,0 -19.174,8.584 -19.174,19.174 v 248.024 h 47.558"
             style="fill:none;stroke:#000000;stroke-width:15;stroke-linecap:round;stroke-linejoin:round;stroke-miterlimit:10;stroke-dasharray:none;stroke-opacity:1"
             id="path10508" /></g><g
           id="g10510"
           transform="translate(245.0847,331.5504)"><path
             d="m 0,0 h 259.415 v -248.024 c 0,-10.59 -8.584,-19.174 -19.174,-19.174 H 75.365"
             style="fill:none;stroke:#000000;stroke-width:15;stroke-linecap:round;stroke-linejoin:round;stroke-miterlimit:10;stroke-dasharray:none;stroke-opacity:1"
             id="path10512" /></g><g
           id="g10514"
           transform="translate(78.8591,447.6481)"><path
             d="M 0,0 H -52.186 C -62.774,0 -71.359,-8.585 -71.359,-19.174 V -126.098"
             style="fill:none;stroke:#000000;stroke-width:15;stroke-linecap:round;stroke-linejoin:round;stroke-miterlimit:10;stroke-dasharray:none;stroke-opacity:1"
             id="path10516" /></g><g
           id="g10518"
           transform="translate(504.4997,321.5504)"><path
             d="m 0,0 v 106.924 c 0,10.589 -8.584,19.174 -19.174,19.174 h -376.467"
             style="fill:none;stroke:#000000;stroke-width:15;stroke-linecap:round;stroke-linejoin:round;stroke-miterlimit:10;stroke-dasharray:none;stroke-opacity:1"
             id="path10520" /></g><g
           id="g10522"
           transform="translate(239.5749,347.2662)"><path
             d="m 0,0 c 3.053,-9.184 4.638,-18.992 4.488,-29.16 -0.749,-50.942 -41.301,-92.248 -92.249,-92.248 -50.947,0 -92.248,41.301 -92.248,92.248 0,50.948 41.306,92.96 92.248,92.249 23.615,-0.329 45.097,-9.187 61.377,-23.504"
             style="fill:none;stroke:#000000;stroke-width:15;stroke-linecap:round;stroke-linejoin:round;stroke-miterlimit:10;stroke-dasharray:none;stroke-opacity:1"
             id="path10524" /></g><g
           id="g10526"
           transform="translate(147.155,274.6364)"><path
             d="m 0,0 -41.374,41.374 c -3.783,3.783 -3.783,9.918 0,13.701 l 17.817,17.817 c 3.784,3.783 9.917,3.783 13.701,0 l 12.9,-12.901 c 3.783,-3.783 9.917,-3.783 13.7,0 l 63.796,63.797 c 3.784,3.783 9.918,3.783 13.701,0 l 17.818,-17.818 c 3.783,-3.783 3.783,-9.918 0,-13.701 L 19.788,0 C 14.324,-5.465 5.464,-5.465 0,0 Z"
             style="fill:none;stroke:#000000;stroke-width:15;stroke-linecap:round;stroke-linejoin:round;stroke-miterlimit:10;stroke-dasharray:none;stroke-opacity:1"
             id="path10528" /></g><g
           id="g10530"
           transform="translate(336.0114,389.5992)"><path
             d="m 0,0 c 0,-8.595 -6.967,-15.563 -15.562,-15.563 -8.594,0 -15.562,6.968 -15.562,15.563 0,8.595 6.968,15.563 15.562,15.563 C -6.967,15.563 0,8.595 0,0 Z"
             style="fill:none;stroke:#000000;stroke-width:15;stroke-linecap:round;stroke-linejoin:round;stroke-miterlimit:10;stroke-dasharray:none;stroke-opacity:1"
             id="path10532" /></g><g
           id="g10534"
           transform="translate(395.5974,389.5992)"><path
             d="m 0,0 c 0,-8.595 -6.967,-15.563 -15.562,-15.563 -8.594,0 -15.562,6.968 -15.562,15.563 0,8.595 6.968,15.563 15.562,15.563 C -6.967,15.563 0,8.595 0,0 Z"
             style="fill:none;stroke:#000000;stroke-width:15;stroke-linecap:round;stroke-linejoin:round;stroke-miterlimit:10;stroke-dasharray:none;stroke-opacity:1"
             id="path10536" /></g><g
           id="g10538"
           transform="translate(453.8942,389.5992)"><path
             d="m 0,0 c 0,-8.595 -6.967,-15.563 -15.562,-15.563 -8.594,0 -15.562,6.968 -15.562,15.563 0,8.595 6.968,15.563 15.562,15.563 C -6.967,15.563 0,8.595 0,0 Z"
             style="fill:none;stroke:#000000;stroke-width:15;stroke-linecap:round;stroke-linejoin:round;stroke-miterlimit:10;stroke-dasharray:none;stroke-opacity:1"
             id="path10540" /></g><g
           id="g10542"
           transform="translate(315.5944,284.3512)"><path
             d="M 0,0 H 117.978"
             style="fill:none;stroke:#000000;stroke-width:15;stroke-linecap:round;stroke-linejoin:round;stroke-miterlimit:10;stroke-dasharray:none;stroke-opacity:1"
             id="path10544" /></g><g
           id="g10546"
           transform="translate(384.4938,249.8942)"><path
             d="M 0,0 H 49.078"
             style="fill:none;stroke:#000000;stroke-width:15;stroke-linecap:round;stroke-linejoin:round;stroke-miterlimit:10;stroke-dasharray:none;stroke-opacity:1"
             id="path10548" /></g></g></g></g></svg>
